<svg width="185" height="42" viewBox="0 0 185 42" fill="none" xmlns="http://www.w3.org/2000/svg">
<path d="M3.068 10.2742H1.04V1.26517H7.189V2.98117H3.068V10.2742ZM16.1561 1.26517V10.2742H14.1281V2.98117H10.7741V10.2742H8.74605V1.26517H16.1561ZM19.9451 5.76317C19.9451 6.20517 19.9971 6.60384 20.1011 6.95917C20.2138 7.3145 20.3698 7.62217 20.5691 7.88217C20.7771 8.1335 21.0285 8.3285 21.3231 8.46717C21.6178 8.60584 21.9558 8.67517 22.3371 8.67517C22.7098 8.67517 23.0435 8.60584 23.3381 8.46717C23.6415 8.3285 23.8928 8.1335 24.0921 7.88217C24.3001 7.62217 24.4561 7.3145 24.5601 6.95917C24.6728 6.60384 24.7291 6.20517 24.7291 5.76317C24.7291 5.32117 24.6728 4.9225 24.5601 4.56717C24.4561 4.20317 24.3001 3.8955 24.0921 3.64417C23.8928 3.38417 23.6415 3.18484 23.3381 3.04617C23.0435 2.9075 22.7098 2.83817 22.3371 2.83817C21.9558 2.83817 21.6178 2.91184 21.3231 3.05917C21.0285 3.19784 20.7771 3.39717 20.5691 3.65717C20.3698 3.9085 20.2138 4.21617 20.1011 4.58017C19.9971 4.9355 19.9451 5.32984 19.9451 5.76317ZM26.8221 5.76317C26.8221 6.5345 26.7051 7.21484 26.4711 7.80417C26.2458 8.38484 25.9338 8.8745 25.5351 9.27317C25.1365 9.66317 24.6598 9.95784 24.1051 10.1572C23.5591 10.3565 22.9698 10.4562 22.3371 10.4562C21.7218 10.4562 21.1411 10.3565 20.5951 10.1572C20.0491 9.95784 19.5725 9.66317 19.1651 9.27317C18.7578 8.8745 18.4371 8.38484 18.2031 7.80417C17.9691 7.21484 17.8521 6.5345 17.8521 5.76317C17.8521 4.99184 17.9735 4.31584 18.2161 3.73517C18.4588 3.14584 18.7838 2.65184 19.1911 2.25317C19.6071 1.8545 20.0838 1.5555 20.6211 1.35617C21.1671 1.15684 21.7391 1.05717 22.3371 1.05717C22.9525 1.05717 23.5331 1.15684 24.0791 1.35617C24.6251 1.5555 25.1018 1.8545 25.5091 2.25317C25.9165 2.65184 26.2371 3.14584 26.4711 3.73517C26.7051 4.31584 26.8221 4.99184 26.8221 5.76317ZM32.9796 7.63517C32.7282 8.20717 32.4639 8.6795 32.1866 9.05217C31.9092 9.41617 31.6232 9.70217 31.3286 9.91017C31.0339 10.1182 30.7349 10.2612 30.4316 10.3392C30.1282 10.4172 29.8206 10.4562 29.5086 10.4562C29.2139 10.4562 28.9062 10.4258 28.5856 10.3652C28.2736 10.3132 27.9789 10.2352 27.7016 10.1312L28.0656 8.50617C28.4902 8.66217 28.9106 8.74017 29.3266 8.74017C29.5952 8.74017 29.8509 8.6795 30.0936 8.55817C30.3449 8.43684 30.5832 8.17684 30.8086 7.77817C30.4532 7.2235 30.1109 6.65584 29.7816 6.07517C29.4609 5.48584 29.1532 4.9095 28.8586 4.34617C28.5726 3.77417 28.3039 3.22817 28.0526 2.70817C27.8099 2.1795 27.5932 1.6985 27.4026 1.26517H29.6516C29.7902 1.60317 29.9419 1.96717 30.1066 2.35717C30.2799 2.7385 30.4619 3.13717 30.6526 3.55317C30.8432 3.9605 31.0339 4.37217 31.2246 4.78817C31.4239 5.1955 31.6146 5.59417 31.7966 5.98417C32.0739 5.2215 32.3382 4.4415 32.5896 3.64417C32.8409 2.84684 33.0836 2.05384 33.3176 1.26517H35.4886C35.2632 1.9325 35.0422 2.5565 34.8256 3.13717C34.6089 3.71784 34.3966 4.26817 34.1886 4.78817C33.9806 5.30817 33.7726 5.80217 33.5646 6.27017C33.3652 6.73817 33.1702 7.19317 32.9796 7.63517ZM39.3181 3.83917C39.3008 3.71784 39.2878 3.59217 39.2791 3.46217C39.2704 3.33217 39.2661 3.23684 39.2661 3.17617C39.2661 2.5955 39.3701 2.04517 39.5781 1.52517C39.7861 0.996503 40.0418 0.55017 40.3451 0.18617L41.6581 0.48517C41.4934 0.857836 41.3591 1.2825 41.2551 1.75917C41.1598 2.22717 41.1121 2.6735 41.1121 3.09817C41.1121 3.1155 41.1121 3.1545 41.1121 3.21517C41.1121 3.26717 41.1121 3.33217 41.1121 3.41017C41.1208 3.4795 41.1251 3.55317 41.1251 3.63117C41.1338 3.70917 41.1424 3.7785 41.1511 3.83917H39.3181ZM42.1131 3.83917C42.0958 3.71784 42.0828 3.59217 42.0741 3.46217C42.0654 3.33217 42.0611 3.23684 42.0611 3.17617C42.0611 2.5955 42.1651 2.04517 42.3731 1.52517C42.5811 0.996503 42.8368 0.55017 43.1401 0.18617L44.4531 0.48517C44.2884 0.857836 44.1541 1.2825 44.0501 1.75917C43.9548 2.22717 43.9071 2.6735 43.9071 3.09817C43.9071 3.1155 43.9071 3.1545 43.9071 3.21517C43.9071 3.26717 43.9071 3.33217 43.9071 3.41017C43.9158 3.4795 43.9201 3.55317 43.9201 3.63117C43.9288 3.70917 43.9374 3.7785 43.9461 3.83917H42.1131ZM45.6894 10.2742V1.26517H51.7734V2.96817H47.7174V4.73617H51.3184V6.40017H47.7174V8.57117H52.0724V10.2742H45.6894ZM59.3322 10.2742H57.3952V7.57017H55.3802V10.2742H53.4432V3.43617H55.3802V5.98417H57.3952V3.43617H59.3322V10.2742ZM63.7623 8.92217C63.9529 8.92217 64.1349 8.91784 64.3083 8.90917C64.4816 8.9005 64.6203 8.8875 64.7243 8.87017V7.40117C64.6463 7.38384 64.5293 7.3665 64.3733 7.34917C64.2173 7.33184 64.0743 7.32317 63.9443 7.32317C63.7623 7.32317 63.5889 7.33617 63.4243 7.36217C63.2683 7.3795 63.1296 7.4185 63.0083 7.47917C62.8869 7.53984 62.7916 7.62217 62.7223 7.72617C62.6529 7.83017 62.6183 7.96017 62.6183 8.11617C62.6183 8.4195 62.7179 8.63184 62.9173 8.75317C63.1253 8.86584 63.4069 8.92217 63.7623 8.92217ZM63.6063 3.25417C64.1783 3.25417 64.6549 3.31917 65.0363 3.44917C65.4176 3.57917 65.7209 3.7655 65.9463 4.00817C66.1803 4.25084 66.3449 4.5455 66.4403 4.89217C66.5356 5.23884 66.5833 5.6245 66.5833 6.04917V10.0792C66.3059 10.1398 65.9203 10.2092 65.4263 10.2872C64.9323 10.3738 64.3343 10.4172 63.6323 10.4172C63.1903 10.4172 62.7873 10.3782 62.4233 10.3002C62.0679 10.2222 61.7603 10.0965 61.5003 9.92317C61.2403 9.74117 61.0409 9.50717 60.9023 9.22117C60.7636 8.93517 60.6943 8.58417 60.6943 8.16817C60.6943 7.7695 60.7723 7.4315 60.9283 7.15417C61.0929 6.87684 61.3096 6.65584 61.5783 6.49117C61.8469 6.3265 62.1546 6.2095 62.5013 6.14017C62.8479 6.06217 63.2076 6.02317 63.5803 6.02317C63.8316 6.02317 64.0526 6.03617 64.2433 6.06217C64.4426 6.0795 64.6029 6.1055 64.7243 6.14017V5.95817C64.7243 5.62884 64.6246 5.3645 64.4253 5.16517C64.2259 4.96584 63.8793 4.86617 63.3853 4.86617C63.0559 4.86617 62.7309 4.89217 62.4103 4.94417C62.0896 4.9875 61.8123 5.0525 61.5783 5.13917L61.3313 3.57917C61.4439 3.5445 61.5826 3.50984 61.7473 3.47517C61.9206 3.43184 62.1069 3.39717 62.3063 3.37117C62.5056 3.3365 62.7136 3.3105 62.9303 3.29317C63.1556 3.26717 63.3809 3.25417 63.6063 3.25417ZM70.2718 5.82817C70.4625 5.64617 70.6618 5.44684 70.8698 5.23017C71.0865 5.0135 71.2945 4.80117 71.4938 4.59317C71.6931 4.3765 71.8838 4.1685 72.0658 3.96917C72.2478 3.76984 72.4081 3.59217 72.5468 3.43617H74.8998C74.7265 3.61817 74.5098 3.8435 74.2498 4.11217C73.9985 4.38084 73.7298 4.6625 73.4438 4.95717C73.1578 5.24317 72.8675 5.52917 72.5728 5.81517C72.2868 6.10117 72.0138 6.35684 71.7538 6.58217C72.0138 6.7815 72.2911 7.0285 72.5858 7.32317C72.8805 7.61784 73.1665 7.93417 73.4438 8.27217C73.7298 8.61017 73.9985 8.9525 74.2498 9.29917C74.5098 9.64584 74.7308 9.97084 74.9128 10.2742H72.7028C72.5468 10.0402 72.3691 9.7975 72.1698 9.54617C71.9705 9.28617 71.7625 9.03484 71.5458 8.79217C71.3291 8.54084 71.1081 8.30684 70.8828 8.09017C70.6661 7.8735 70.4625 7.68717 70.2718 7.53117V10.2742H68.3348V3.43617H70.2718V5.82817ZM82.179 3.43617V10.2742H80.229C80.229 9.84084 80.2333 9.41184 80.242 8.98717C80.2507 8.55384 80.2593 8.15517 80.268 7.79117C80.2767 7.42717 80.2853 7.11084 80.294 6.84217C80.3113 6.56484 80.32 6.36117 80.32 6.23117C80.0687 6.5865 79.8173 6.94617 79.566 7.31017C79.3147 7.67417 79.072 8.03384 78.838 8.38917C78.6127 8.73584 78.396 9.0695 78.188 9.39017C77.9887 9.71084 77.811 10.0055 77.655 10.2742H75.952V3.43617H77.889C77.889 3.8695 77.8847 4.2855 77.876 4.68417C77.876 5.07417 77.8717 5.4295 77.863 5.75017C77.8543 6.07084 77.8457 6.3525 77.837 6.59517C77.8283 6.82917 77.824 7.01117 77.824 7.14117C78.344 6.3785 78.8207 5.69384 79.254 5.08717C79.696 4.4805 80.125 3.93017 80.541 3.43617H82.179ZM83.6758 6.90717C83.6758 6.3005 83.7668 5.77184 83.9488 5.32117C84.1395 4.86184 84.3865 4.4805 84.6898 4.17717C84.9932 3.87384 85.3398 3.64417 85.7298 3.48817C86.1285 3.33217 86.5358 3.25417 86.9518 3.25417C87.9225 3.25417 88.6895 3.55317 89.2528 4.15117C89.8162 4.7405 90.0978 5.6115 90.0978 6.76417C90.0978 6.87684 90.0935 7.0025 90.0848 7.14117C90.0762 7.27117 90.0675 7.38817 90.0588 7.49217H85.6648C85.7082 7.89084 85.8945 8.20717 86.2238 8.44117C86.5532 8.67517 86.9952 8.79217 87.5498 8.79217C87.9052 8.79217 88.2518 8.76184 88.5898 8.70117C88.9365 8.63184 89.2182 8.5495 89.4348 8.45417L89.6948 10.0272C89.5908 10.0792 89.4522 10.1312 89.2788 10.1832C89.1055 10.2352 88.9105 10.2785 88.6938 10.3132C88.4858 10.3565 88.2605 10.3912 88.0178 10.4172C87.7752 10.4432 87.5325 10.4562 87.2898 10.4562C86.6745 10.4562 86.1372 10.3652 85.6778 10.1832C85.2272 10.0012 84.8502 9.75417 84.5468 9.44217C84.2522 9.1215 84.0312 8.7445 83.8838 8.31117C83.7452 7.87784 83.6758 7.40984 83.6758 6.90717ZM88.2258 6.16617C88.2172 6.0015 88.1868 5.84117 88.1348 5.68517C88.0915 5.52917 88.0178 5.3905 87.9138 5.26917C87.8185 5.14784 87.6928 5.04817 87.5368 4.97017C87.3895 4.89217 87.2032 4.85317 86.9778 4.85317C86.7612 4.85317 86.5748 4.89217 86.4188 4.97017C86.2628 5.0395 86.1328 5.13484 86.0288 5.25617C85.9248 5.3775 85.8425 5.5205 85.7818 5.68517C85.7298 5.84117 85.6908 6.0015 85.6648 6.16617H88.2258ZM93.5296 8.84417C93.651 8.8615 93.8113 8.87884 94.0106 8.89617C94.2186 8.90484 94.4093 8.90917 94.5826 8.90917C95.016 8.90917 95.354 8.85717 95.5966 8.75317C95.8393 8.6405 95.9606 8.44117 95.9606 8.15517C95.9606 7.87784 95.848 7.68717 95.6226 7.58317C95.406 7.4705 95.0853 7.41417 94.6606 7.41417H93.5296V8.84417ZM94.6216 6.11417C94.9423 6.11417 95.2023 6.07517 95.4016 5.99717C95.601 5.9105 95.7006 5.7285 95.7006 5.45117C95.7006 5.19117 95.588 5.0135 95.3626 4.91817C95.1373 4.82284 94.8426 4.77517 94.4786 4.77517C94.3573 4.77517 94.197 4.78384 93.9976 4.80117C93.807 4.80984 93.651 4.82284 93.5296 4.84017V6.11417H94.6216ZM94.5566 10.4042C94.314 10.4042 94.054 10.3955 93.7766 10.3782C93.4993 10.3608 93.2263 10.3348 92.9576 10.3002C92.689 10.2742 92.4333 10.2438 92.1906 10.2092C91.9566 10.1658 91.7573 10.1268 91.5926 10.0922V3.54017C91.7573 3.5055 91.9566 3.47517 92.1906 3.44917C92.4333 3.4145 92.689 3.38417 92.9576 3.35817C93.2263 3.33217 93.4993 3.31484 93.7766 3.30617C94.054 3.28884 94.314 3.28017 94.5566 3.28017C95.12 3.28017 95.5923 3.3365 95.9736 3.44917C96.3636 3.56184 96.6756 3.70917 96.9096 3.89117C97.1523 4.07317 97.3256 4.27684 97.4296 4.50217C97.5336 4.7275 97.5856 4.95284 97.5856 5.17817C97.5856 5.4815 97.512 5.75884 97.3646 6.01017C97.2173 6.2615 97.031 6.4435 96.8056 6.55617C96.927 6.60817 97.0483 6.68184 97.1696 6.77717C97.2996 6.8725 97.4166 6.9895 97.5206 7.12817C97.6246 7.25817 97.707 7.4185 97.7676 7.60917C97.837 7.79117 97.8716 8.0035 97.8716 8.24617C97.8716 8.5235 97.8153 8.79217 97.7026 9.05217C97.5986 9.31217 97.4166 9.54184 97.1566 9.74117C96.8966 9.9405 96.5543 10.1008 96.1296 10.2222C95.705 10.3435 95.1806 10.4042 94.5566 10.4042ZM99.0371 6.85517C99.0371 6.36117 99.1151 5.8975 99.2711 5.46417C99.4358 5.02217 99.6698 4.64084 99.9731 4.32017C100.276 3.99084 100.645 3.73084 101.078 3.54017C101.511 3.3495 102.005 3.25417 102.56 3.25417C102.924 3.25417 103.258 3.28884 103.561 3.35817C103.864 3.41884 104.159 3.50984 104.445 3.63117L104.042 5.17817C103.86 5.10884 103.661 5.04817 103.444 4.99617C103.227 4.94417 102.985 4.91817 102.716 4.91817C102.144 4.91817 101.715 5.09584 101.429 5.45117C101.152 5.8065 101.013 6.2745 101.013 6.85517C101.013 7.4705 101.143 7.94717 101.403 8.28517C101.672 8.62317 102.135 8.79217 102.794 8.79217C103.028 8.79217 103.279 8.7705 103.548 8.72717C103.817 8.68384 104.064 8.6145 104.289 8.51917L104.562 10.1052C104.337 10.2005 104.055 10.2828 103.717 10.3522C103.379 10.4215 103.006 10.4562 102.599 10.4562C101.975 10.4562 101.438 10.3652 100.987 10.1832C100.536 9.9925 100.164 9.73684 99.8691 9.41617C99.5831 9.0955 99.3708 8.7185 99.2321 8.28517C99.1021 7.84317 99.0371 7.3665 99.0371 6.85517ZM107.799 5.82817C107.99 5.64617 108.189 5.44684 108.397 5.23017C108.614 5.0135 108.822 4.80117 109.021 4.59317C109.22 4.3765 109.411 4.1685 109.593 3.96917C109.775 3.76984 109.935 3.59217 110.074 3.43617H112.427C112.254 3.61817 112.037 3.8435 111.777 4.11217C111.526 4.38084 111.257 4.6625 110.971 4.95717C110.685 5.24317 110.395 5.52917 110.1 5.81517C109.814 6.10117 109.541 6.35684 109.281 6.58217C109.541 6.7815 109.818 7.0285 110.113 7.32317C110.408 7.61784 110.694 7.93417 110.971 8.27217C111.257 8.61017 111.526 8.9525 111.777 9.29917C112.037 9.64584 112.258 9.97084 112.44 10.2742H110.23C110.074 10.0402 109.896 9.7975 109.697 9.54617C109.498 9.28617 109.29 9.03484 109.073 8.79217C108.856 8.54084 108.635 8.30684 108.41 8.09017C108.193 7.8735 107.99 7.68717 107.799 7.53117V10.2742H105.862V3.43617H107.799V5.82817ZM119.706 3.43617V10.2742H117.756C117.756 9.84084 117.761 9.41184 117.769 8.98717C117.778 8.55384 117.787 8.15517 117.795 7.79117C117.804 7.42717 117.813 7.11084 117.821 6.84217C117.839 6.56484 117.847 6.36117 117.847 6.23117C117.596 6.5865 117.345 6.94617 117.093 7.31017C116.842 7.67417 116.599 8.03384 116.365 8.38917C116.14 8.73584 115.923 9.0695 115.715 9.39017C115.516 9.71084 115.338 10.0055 115.182 10.2742H113.479V3.43617H115.416C115.416 3.8695 115.412 4.2855 115.403 4.68417C115.403 5.07417 115.399 5.4295 115.39 5.75017C115.382 6.07084 115.373 6.3525 115.364 6.59517C115.356 6.82917 115.351 7.01117 115.351 7.14117C115.871 6.3785 116.348 5.69384 116.781 5.08717C117.223 4.4805 117.652 3.93017 118.068 3.43617H119.706ZM127.755 3.43617V10.2742H125.805C125.805 9.84084 125.809 9.41184 125.818 8.98717C125.827 8.55384 125.835 8.15517 125.844 7.79117C125.853 7.42717 125.861 7.11084 125.87 6.84217C125.887 6.56484 125.896 6.36117 125.896 6.23117C125.645 6.5865 125.393 6.94617 125.142 7.31017C124.891 7.67417 124.648 8.03384 124.414 8.38917C124.189 8.73584 123.972 9.0695 123.764 9.39017C123.565 9.71084 123.387 10.0055 123.231 10.2742H121.528V3.43617H123.465C123.465 3.8695 123.461 4.2855 123.452 4.68417C123.452 5.07417 123.448 5.4295 123.439 5.75017C123.43 6.07084 123.422 6.3525 123.413 6.59517C123.404 6.82917 123.4 7.01117 123.4 7.14117C123.92 6.3785 124.397 5.69384 124.83 5.08717C125.272 4.4805 125.701 3.93017 126.117 3.43617H127.755ZM124.674 2.50017C124.397 2.50017 124.128 2.46117 123.868 2.38317C123.617 2.2965 123.387 2.17517 123.179 2.01917C122.971 1.8545 122.798 1.6595 122.659 1.43417C122.529 1.20017 122.451 0.935836 122.425 0.641169L123.764 0.29017C123.833 0.619503 123.946 0.853503 124.102 0.992169C124.267 1.13084 124.457 1.20017 124.674 1.20017C124.899 1.20017 125.09 1.1395 125.246 1.01817C125.411 0.888169 125.528 0.649836 125.597 0.30317L126.923 0.65417C126.897 0.948836 126.815 1.21317 126.676 1.44717C126.546 1.6725 126.377 1.86317 126.169 2.01917C125.97 2.17517 125.74 2.2965 125.48 2.38317C125.22 2.46117 124.951 2.50017 124.674 2.50017ZM6.799 18.4362V25.2742H4.862V20.0482H2.847V25.2742H0.91V18.4362H6.799ZM15.0121 21.8422C15.0121 22.3795 14.9341 22.8735 14.7781 23.3242C14.6221 23.7662 14.3967 24.1475 14.1021 24.4682C13.8074 24.7802 13.4521 25.0228 13.0361 25.1962C12.6287 25.3695 12.1694 25.4562 11.6581 25.4562C11.1554 25.4562 10.6961 25.3695 10.2801 25.1962C9.87272 25.0228 9.52172 24.7802 9.22705 24.4682C8.93239 24.1475 8.70272 23.7662 8.53805 23.3242C8.37339 22.8735 8.29105 22.3795 8.29105 21.8422C8.29105 21.3048 8.37339 20.8152 8.53805 20.3732C8.71139 19.9312 8.94539 19.5542 9.24005 19.2422C9.54339 18.9302 9.89872 18.6875 10.3061 18.5142C10.7221 18.3408 11.1727 18.2542 11.6581 18.2542C12.1521 18.2542 12.6027 18.3408 13.0101 18.5142C13.4261 18.6875 13.7814 18.9302 14.0761 19.2422C14.3707 19.5542 14.6004 19.9312 14.7651 20.3732C14.9297 20.8152 15.0121 21.3048 15.0121 21.8422ZM13.0361 21.8422C13.0361 21.2442 12.9147 20.7762 12.6721 20.4382C12.4381 20.0915 12.1001 19.9182 11.6581 19.9182C11.2161 19.9182 10.8737 20.0915 10.6311 20.4382C10.3884 20.7762 10.2671 21.2442 10.2671 21.8422C10.2671 22.4402 10.3884 22.9168 10.6311 23.2722C10.8737 23.6188 11.2161 23.7922 11.6581 23.7922C12.1001 23.7922 12.4381 23.6188 12.6721 23.2722C12.9147 22.9168 13.0361 22.4402 13.0361 21.8422ZM19.5805 20.0222C19.5719 20.2735 19.5589 20.5422 19.5415 20.8282C19.5329 21.1055 19.5112 21.3872 19.4765 21.6732C19.4419 21.9505 19.3942 22.2235 19.3335 22.4922C19.2815 22.7608 19.2122 23.0122 19.1255 23.2462C19.0215 23.5235 18.8872 23.7835 18.7225 24.0262C18.5665 24.2602 18.3629 24.4725 18.1115 24.6632C17.8689 24.8538 17.5699 25.0142 17.2145 25.1442C16.8679 25.2655 16.4605 25.3478 15.9925 25.3912L15.7325 23.7792C16.1745 23.6925 16.5169 23.5712 16.7595 23.4152C17.0022 23.2505 17.1842 23.0425 17.3055 22.7912C17.4009 22.5745 17.4745 22.3232 17.5265 22.0372C17.5872 21.7512 17.6305 21.4522 17.6565 21.1402C17.6825 20.8195 17.6955 20.4945 17.6955 20.1652C17.7042 19.8358 17.7085 19.5195 17.7085 19.2162V18.4362H22.8435V25.2742H20.9065V20.0222H19.5805ZM30.8899 18.4362V25.2742H28.9399C28.9399 24.8408 28.9443 24.4118 28.9529 23.9872C28.9616 23.5538 28.9703 23.1552 28.9789 22.7912C28.9876 22.4272 28.9963 22.1108 29.0049 21.8422C29.0223 21.5648 29.0309 21.3612 29.0309 21.2312C28.7796 21.5865 28.5283 21.9462 28.2769 22.3102C28.0256 22.6742 27.7829 23.0338 27.5489 23.3892C27.3236 23.7358 27.1069 24.0695 26.8989 24.3902C26.6996 24.7108 26.5219 25.0055 26.3659 25.2742H24.6629V18.4362H26.5999C26.5999 18.8695 26.5956 19.2855 26.5869 19.6842C26.5869 20.0742 26.5826 20.4295 26.5739 20.7502C26.5653 21.0708 26.5566 21.3525 26.5479 21.5952C26.5393 21.8292 26.5349 22.0112 26.5349 22.1412C27.0549 21.3785 27.5316 20.6938 27.9649 20.0872C28.4069 19.4805 28.8359 18.9302 29.2519 18.4362H30.8899ZM38.3668 20.0222H36.1828V25.2742H34.2458V20.0222H32.0618V18.4362H38.3668V20.0222ZM39.2168 21.9072C39.2168 21.3005 39.3078 20.7718 39.4898 20.3212C39.6805 19.8618 39.9275 19.4805 40.2308 19.1772C40.5342 18.8738 40.8808 18.6442 41.2708 18.4882C41.6695 18.3322 42.0768 18.2542 42.4928 18.2542C43.4635 18.2542 44.2305 18.5532 44.7938 19.1512C45.3572 19.7405 45.6388 20.6115 45.6388 21.7642C45.6388 21.8768 45.6345 22.0025 45.6258 22.1412C45.6172 22.2712 45.6085 22.3882 45.5998 22.4922H41.2058C41.2492 22.8908 41.4355 23.2072 41.7648 23.4412C42.0942 23.6752 42.5362 23.7922 43.0908 23.7922C43.4462 23.7922 43.7928 23.7618 44.1308 23.7012C44.4775 23.6318 44.7592 23.5495 44.9758 23.4542L45.2358 25.0272C45.1318 25.0792 44.9932 25.1312 44.8198 25.1832C44.6465 25.2352 44.4515 25.2785 44.2348 25.3132C44.0268 25.3565 43.8015 25.3912 43.5588 25.4172C43.3162 25.4432 43.0735 25.4562 42.8308 25.4562C42.2155 25.4562 41.6782 25.3652 41.2188 25.1832C40.7682 25.0012 40.3912 24.7542 40.0878 24.4422C39.7932 24.1215 39.5722 23.7445 39.4248 23.3112C39.2862 22.8778 39.2168 22.4098 39.2168 21.9072ZM43.7668 21.1662C43.7582 21.0015 43.7278 20.8412 43.6758 20.6852C43.6325 20.5292 43.5588 20.3905 43.4548 20.2692C43.3595 20.1478 43.2338 20.0482 43.0778 19.9702C42.9305 19.8922 42.7442 19.8532 42.5188 19.8532C42.3022 19.8532 42.1158 19.8922 41.9598 19.9702C41.8038 20.0395 41.6738 20.1348 41.5698 20.2562C41.4658 20.3775 41.3835 20.5205 41.3228 20.6852C41.2708 20.8412 41.2318 21.0015 41.2058 21.1662H43.7668ZM49.6602 20.5162L51.0122 18.4362H53.0142L50.6742 21.7252C51.1942 22.3752 51.6665 23.0078 52.0912 23.6232C52.5159 24.2385 52.8539 24.7888 53.1052 25.2742H51.0252C50.9559 25.1442 50.8692 24.9838 50.7652 24.7932C50.6612 24.5938 50.5442 24.3902 50.4142 24.1822C50.2842 23.9655 50.1455 23.7532 49.9982 23.5452C49.8595 23.3285 49.7209 23.1335 49.5822 22.9602C49.4522 23.1248 49.3179 23.3068 49.1792 23.5062C49.0492 23.7055 48.9235 23.9092 48.8022 24.1172C48.6809 24.3165 48.5595 24.5158 48.4382 24.7152C48.3255 24.9145 48.2259 25.1008 48.1392 25.2742H46.1632C46.2672 25.0575 46.4102 24.8018 46.5922 24.5072C46.7742 24.2125 46.9692 23.9092 47.1772 23.5972C47.3939 23.2765 47.6192 22.9602 47.8532 22.6482C48.0872 22.3275 48.3169 22.0285 48.5422 21.7512C48.1522 21.2052 47.7622 20.6548 47.3722 20.1002C46.9822 19.5368 46.5965 18.9822 46.2152 18.4362H48.3082L49.6602 20.5162ZM60.0304 25.2742H58.0934V22.5702H56.0784V25.2742H54.1414V18.4362H56.0784V20.9842H58.0934V18.4362H60.0304V25.2742ZM68.0745 18.4362V25.2742H66.1245C66.1245 24.8408 66.1288 24.4118 66.1375 23.9872C66.1462 23.5538 66.1548 23.1552 66.1635 22.7912C66.1722 22.4272 66.1808 22.1108 66.1895 21.8422C66.2068 21.5648 66.2155 21.3612 66.2155 21.2312C65.9642 21.5865 65.7128 21.9462 65.4615 22.3102C65.2102 22.6742 64.9675 23.0338 64.7335 23.3892C64.5082 23.7358 64.2915 24.0695 64.0835 24.3902C63.8842 24.7108 63.7065 25.0055 63.5505 25.2742H61.8475V18.4362H63.7845C63.7845 18.8695 63.7802 19.2855 63.7715 19.6842C63.7715 20.0742 63.7672 20.4295 63.7585 20.7502C63.7498 21.0708 63.7412 21.3525 63.7325 21.5952C63.7238 21.8292 63.7195 22.0112 63.7195 22.1412C64.2395 21.3785 64.7162 20.6938 65.1495 20.0872C65.5915 19.4805 66.0205 18.9302 66.4365 18.4362H68.0745ZM71.5083 18.4362V20.6462C71.5083 20.9755 71.6123 21.2052 71.8203 21.3352C72.037 21.4652 72.336 21.5302 72.7173 21.5302C72.7953 21.5302 72.9167 21.5258 73.0813 21.5172C73.246 21.4998 73.3933 21.4825 73.5233 21.4652V18.4362H75.4603V25.2742H73.5233V23.0252C73.35 23.0512 73.1593 23.0728 72.9513 23.0902C72.752 23.1075 72.6003 23.1162 72.4963 23.1162C72.0543 23.1162 71.6513 23.0772 71.2873 22.9992C70.932 22.9125 70.6243 22.7782 70.3643 22.5962C70.113 22.4055 69.918 22.1542 69.7793 21.8422C69.6407 21.5215 69.5713 21.1272 69.5713 20.6592V18.4362H71.5083ZM76.96 21.9072C76.96 21.3005 77.051 20.7718 77.233 20.3212C77.4237 19.8618 77.6707 19.4805 77.974 19.1772C78.2773 18.8738 78.624 18.6442 79.014 18.4882C79.4127 18.3322 79.82 18.2542 80.236 18.2542C81.2067 18.2542 81.9737 18.5532 82.537 19.1512C83.1003 19.7405 83.382 20.6115 83.382 21.7642C83.382 21.8768 83.3777 22.0025 83.369 22.1412C83.3603 22.2712 83.3517 22.3882 83.343 22.4922H78.949C78.9923 22.8908 79.1787 23.2072 79.508 23.4412C79.8373 23.6752 80.2793 23.7922 80.834 23.7922C81.1893 23.7922 81.536 23.7618 81.874 23.7012C82.2207 23.6318 82.5023 23.5495 82.719 23.4542L82.979 25.0272C82.875 25.0792 82.7363 25.1312 82.563 25.1832C82.3897 25.2352 82.1947 25.2785 81.978 25.3132C81.77 25.3565 81.5447 25.3912 81.302 25.4172C81.0593 25.4432 80.8167 25.4562 80.574 25.4562C79.9587 25.4562 79.4213 25.3652 78.962 25.1832C78.5113 25.0012 78.1343 24.7542 77.831 24.4422C77.5363 24.1215 77.3153 23.7445 77.168 23.3112C77.0293 22.8778 76.96 22.4098 76.96 21.9072ZM81.51 21.1662C81.5013 21.0015 81.471 20.8412 81.419 20.6852C81.3757 20.5292 81.302 20.3905 81.198 20.2692C81.1027 20.1478 80.977 20.0482 80.821 19.9702C80.6737 19.8922 80.4873 19.8532 80.262 19.8532C80.0453 19.8532 79.859 19.8922 79.703 19.9702C79.547 20.0395 79.417 20.1348 79.313 20.2562C79.209 20.3775 79.1267 20.5205 79.066 20.6852C79.014 20.8412 78.975 21.0015 78.949 21.1662H81.51ZM84.5518 21.8552C84.5518 21.3612 84.6298 20.8975 84.7858 20.4642C84.9505 20.0222 85.1845 19.6408 85.4878 19.3202C85.7911 18.9908 86.1595 18.7308 86.5928 18.5402C87.0261 18.3495 87.5201 18.2542 88.0748 18.2542C88.4388 18.2542 88.7725 18.2888 89.0758 18.3582C89.3791 18.4188 89.6738 18.5098 89.9598 18.6312L89.5568 20.1782C89.3748 20.1088 89.1755 20.0482 88.9588 19.9962C88.7421 19.9442 88.4995 19.9182 88.2308 19.9182C87.6588 19.9182 87.2298 20.0958 86.9438 20.4512C86.6665 20.8065 86.5278 21.2745 86.5278 21.8552C86.5278 22.4705 86.6578 22.9472 86.9178 23.2852C87.1865 23.6232 87.6501 23.7922 88.3088 23.7922C88.5428 23.7922 88.7941 23.7705 89.0628 23.7272C89.3315 23.6838 89.5785 23.6145 89.8038 23.5192L90.0768 25.1052C89.8515 25.2005 89.5698 25.2828 89.2318 25.3522C88.8938 25.4215 88.5211 25.4562 88.1138 25.4562C87.4898 25.4562 86.9525 25.3652 86.5018 25.1832C86.0511 24.9925 85.6785 24.7368 85.3838 24.4162C85.0978 24.0955 84.8855 23.7185 84.7468 23.2852C84.6168 22.8432 84.5518 22.3665 84.5518 21.8552ZM93.3138 20.8282C93.5045 20.6462 93.7038 20.4468 93.9118 20.2302C94.1285 20.0135 94.3365 19.8012 94.5358 19.5932C94.7351 19.3765 94.9258 19.1685 95.1078 18.9692C95.2898 18.7698 95.4501 18.5922 95.5888 18.4362H97.9418C97.7685 18.6182 97.5518 18.8435 97.2918 19.1122C97.0405 19.3808 96.7718 19.6625 96.4858 19.9572C96.1998 20.2432 95.9095 20.5292 95.6148 20.8152C95.3288 21.1012 95.0558 21.3568 94.7958 21.5822C95.0558 21.7815 95.3331 22.0285 95.6278 22.3232C95.9225 22.6178 96.2085 22.9342 96.4858 23.2722C96.7718 23.6102 97.0405 23.9525 97.2918 24.2992C97.5518 24.6458 97.7728 24.9708 97.9548 25.2742H95.7448C95.5888 25.0402 95.4111 24.7975 95.2118 24.5462C95.0125 24.2862 94.8045 24.0348 94.5878 23.7922C94.3711 23.5408 94.1501 23.3068 93.9248 23.0902C93.7081 22.8735 93.5045 22.6872 93.3138 22.5312V25.2742H91.3768V18.4362H93.3138V20.8282ZM105.221 18.4362V25.2742H103.271C103.271 24.8408 103.275 24.4118 103.284 23.9872C103.293 23.5538 103.301 23.1552 103.31 22.7912C103.319 22.4272 103.327 22.1108 103.336 21.8422C103.353 21.5648 103.362 21.3612 103.362 21.2312C103.111 21.5865 102.859 21.9462 102.608 22.3102C102.357 22.6742 102.114 23.0338 101.88 23.3892C101.655 23.7358 101.438 24.0695 101.23 24.3902C101.031 24.7108 100.853 25.0055 100.697 25.2742H98.994V18.4362H100.931C100.931 18.8695 100.927 19.2855 100.918 19.6842C100.918 20.0742 100.914 20.4295 100.905 20.7502C100.896 21.0708 100.888 21.3525 100.879 21.5952C100.87 21.8292 100.866 22.0112 100.866 22.1412C101.386 21.3785 101.863 20.6938 102.296 20.0872C102.738 19.4805 103.167 18.9302 103.583 18.4362H105.221ZM113.27 18.4362V25.2742H111.32C111.32 24.8408 111.324 24.4118 111.333 23.9872C111.341 23.5538 111.35 23.1552 111.359 22.7912C111.367 22.4272 111.376 22.1108 111.385 21.8422C111.402 21.5648 111.411 21.3612 111.411 21.2312C111.159 21.5865 110.908 21.9462 110.657 22.3102C110.405 22.6742 110.163 23.0338 109.929 23.3892C109.703 23.7358 109.487 24.0695 109.279 24.3902C109.079 24.7108 108.902 25.0055 108.746 25.2742H107.043V18.4362H108.98C108.98 18.8695 108.975 19.2855 108.967 19.6842C108.967 20.0742 108.962 20.4295 108.954 20.7502C108.945 21.0708 108.936 21.3525 108.928 21.5952C108.919 21.8292 108.915 22.0112 108.915 22.1412C109.435 21.3785 109.911 20.6938 110.345 20.0872C110.787 19.4805 111.216 18.9302 111.632 18.4362H113.27ZM110.189 17.5002C109.911 17.5002 109.643 17.4612 109.383 17.3832C109.131 17.2965 108.902 17.1752 108.694 17.0192C108.486 16.8545 108.312 16.6595 108.174 16.4342C108.044 16.2002 107.966 15.9358 107.94 15.6412L109.279 15.2902C109.348 15.6195 109.461 15.8535 109.617 15.9922C109.781 16.1308 109.972 16.2002 110.189 16.2002C110.414 16.2002 110.605 16.1395 110.761 16.0182C110.925 15.8882 111.042 15.6498 111.112 15.3032L112.438 15.6542C112.412 15.9488 112.329 16.2132 112.191 16.4472C112.061 16.6725 111.892 16.8632 111.684 17.0192C111.484 17.1752 111.255 17.2965 110.995 17.3832C110.735 17.4612 110.466 17.5002 110.189 17.5002ZM123.87 20.0222H121.686V25.2742H119.749V20.0222H117.565V18.4362H123.87V20.0222ZM124.72 21.9072C124.72 21.3005 124.811 20.7718 124.993 20.3212C125.183 19.8618 125.43 19.4805 125.734 19.1772C126.037 18.8738 126.384 18.6442 126.774 18.4882C127.172 18.3322 127.58 18.2542 127.996 18.2542C128.966 18.2542 129.733 18.5532 130.297 19.1512C130.86 19.7405 131.142 20.6115 131.142 21.7642C131.142 21.8768 131.137 22.0025 131.129 22.1412C131.12 22.2712 131.111 22.3882 131.103 22.4922H126.709C126.752 22.8908 126.938 23.2072 127.268 23.4412C127.597 23.6752 128.039 23.7922 128.594 23.7922C128.949 23.7922 129.296 23.7618 129.634 23.7012C129.98 23.6318 130.262 23.5495 130.479 23.4542L130.739 25.0272C130.635 25.0792 130.496 25.1312 130.323 25.1832C130.149 25.2352 129.954 25.2785 129.738 25.3132C129.53 25.3565 129.304 25.3912 129.062 25.4172C128.819 25.4432 128.576 25.4562 128.334 25.4562C127.718 25.4562 127.181 25.3652 126.722 25.1832C126.271 25.0012 125.894 24.7542 125.591 24.4422C125.296 24.1215 125.075 23.7445 124.928 23.3112C124.789 22.8778 124.72 22.4098 124.72 21.9072ZM129.27 21.1662C129.261 21.0015 129.231 20.8412 129.179 20.6852C129.135 20.5292 129.062 20.3905 128.958 20.2692C128.862 20.1478 128.737 20.0482 128.581 19.9702C128.433 19.8922 128.247 19.8532 128.022 19.8532C127.805 19.8532 127.619 19.8922 127.463 19.9702C127.307 20.0395 127.177 20.1348 127.073 20.2562C126.969 20.3775 126.886 20.5205 126.826 20.6852C126.774 20.8412 126.735 21.0015 126.709 21.1662H129.27ZM135.163 20.5162L136.515 18.4362H138.517L136.177 21.7252C136.697 22.3752 137.169 23.0078 137.594 23.6232C138.019 24.2385 138.357 24.7888 138.608 25.2742H136.528C136.459 25.1442 136.372 24.9838 136.268 24.7932C136.164 24.5938 136.047 24.3902 135.917 24.1822C135.787 23.9655 135.648 23.7532 135.501 23.5452C135.362 23.3285 135.224 23.1335 135.085 22.9602C134.955 23.1248 134.821 23.3068 134.682 23.5062C134.552 23.7055 134.426 23.9092 134.305 24.1172C134.184 24.3165 134.062 24.5158 133.941 24.7152C133.828 24.9145 133.729 25.1008 133.642 25.2742H131.666C131.77 25.0575 131.913 24.8018 132.095 24.5072C132.277 24.2125 132.472 23.9092 132.68 23.5972C132.897 23.2765 133.122 22.9602 133.356 22.6482C133.59 22.3275 133.82 22.0285 134.045 21.7512C133.655 21.2052 133.265 20.6548 132.875 20.1002C132.485 19.5368 132.099 18.9822 131.718 18.4362H133.811L135.163 20.5162ZM145.533 25.2742H143.596V22.5702H141.581V25.2742H139.644V18.4362H141.581V20.9842H143.596V18.4362H145.533V25.2742ZM153.577 18.4362V25.2742H151.627C151.627 24.8408 151.632 24.4118 151.64 23.9872C151.649 23.5538 151.658 23.1552 151.666 22.7912C151.675 22.4272 151.684 22.1108 151.692 21.8422C151.71 21.5648 151.718 21.3612 151.718 21.2312C151.467 21.5865 151.216 21.9462 150.964 22.3102C150.713 22.6742 150.47 23.0338 150.236 23.3892C150.011 23.7358 149.794 24.0695 149.586 24.3902C149.387 24.7108 149.209 25.0055 149.053 25.2742H147.35V18.4362H149.287C149.287 18.8695 149.283 19.2855 149.274 19.6842C149.274 20.0742 149.27 20.4295 149.261 20.7502C149.253 21.0708 149.244 21.3525 149.235 21.5952C149.227 21.8292 149.222 22.0112 149.222 22.1412C149.742 21.3785 150.219 20.6938 150.652 20.0872C151.094 19.4805 151.523 18.9302 151.939 18.4362H153.577ZM157.336 20.8282C157.527 20.6462 157.726 20.4468 157.934 20.2302C158.151 20.0135 158.359 19.8012 158.558 19.5932C158.758 19.3765 158.948 19.1685 159.13 18.9692C159.312 18.7698 159.473 18.5922 159.611 18.4362H161.964C161.791 18.6182 161.574 18.8435 161.314 19.1122C161.063 19.3808 160.794 19.6625 160.508 19.9572C160.222 20.2432 159.932 20.5292 159.637 20.8152C159.351 21.1012 159.078 21.3568 158.818 21.5822C159.078 21.7815 159.356 22.0285 159.65 22.3232C159.945 22.6178 160.231 22.9342 160.508 23.2722C160.794 23.6102 161.063 23.9525 161.314 24.2992C161.574 24.6458 161.795 24.9708 161.977 25.2742H159.767C159.611 25.0402 159.434 24.7975 159.234 24.5462C159.035 24.2862 158.827 24.0348 158.61 23.7922C158.394 23.5408 158.173 23.3068 157.947 23.0902C157.731 22.8735 157.527 22.6872 157.336 22.5312V25.2742H155.399V18.4362H157.336V20.8282ZM169.405 18.4362C169.015 19.7535 168.607 20.9885 168.183 22.1412C167.758 23.2938 167.294 24.4118 166.792 25.4952C166.61 25.8852 166.428 26.2145 166.246 26.4832C166.064 26.7605 165.864 26.9858 165.648 27.1592C165.431 27.3412 165.184 27.4712 164.907 27.5492C164.638 27.6358 164.322 27.6792 163.958 27.6792C163.654 27.6792 163.373 27.6488 163.113 27.5882C162.861 27.5362 162.653 27.4755 162.489 27.4062L162.827 25.8592C163.026 25.9285 163.204 25.9762 163.36 26.0022C163.516 26.0282 163.68 26.0412 163.854 26.0412C164.2 26.0412 164.465 25.9458 164.647 25.7552C164.837 25.5732 164.998 25.3175 165.128 24.9882C164.686 24.1215 164.244 23.1508 163.802 22.0762C163.36 20.9928 162.944 19.7795 162.554 18.4362H164.608C164.694 18.7742 164.794 19.1425 164.907 19.5412C165.028 19.9312 165.154 20.3298 165.284 20.7372C165.414 21.1358 165.544 21.5258 165.674 21.9072C165.812 22.2885 165.942 22.6352 166.064 22.9472C166.176 22.6352 166.293 22.2885 166.415 21.9072C166.536 21.5258 166.653 21.1358 166.766 20.7372C166.887 20.3298 167 19.9312 167.104 19.5412C167.216 19.1425 167.316 18.7742 167.403 18.4362H169.405ZM172.367 21.3352C172.35 21.6385 172.333 21.9678 172.315 22.3232C172.298 22.6785 172.281 23.0382 172.263 23.4022C172.255 23.7575 172.242 24.0998 172.224 24.4292C172.216 24.7498 172.207 25.0315 172.198 25.2742H170.313C170.331 24.7975 170.357 24.2602 170.391 23.6622C170.435 23.0642 170.478 22.4575 170.521 21.8422C170.573 21.2182 170.625 20.6115 170.677 20.0222C170.738 19.4328 170.794 18.9042 170.846 18.4362H172.458C172.831 19.0428 173.173 19.6712 173.485 20.3212C173.797 20.9712 174.127 21.6862 174.473 22.4662C174.837 21.6342 175.193 20.8672 175.539 20.1652C175.886 19.4545 176.198 18.8782 176.475 18.4362H178.113C178.174 18.9042 178.23 19.4328 178.282 20.0222C178.343 20.6115 178.395 21.2182 178.438 21.8422C178.49 22.4575 178.534 23.0642 178.568 23.6622C178.603 24.2602 178.629 24.7975 178.646 25.2742H176.722C176.705 24.5982 176.679 23.9265 176.644 23.2592C176.618 22.5918 176.592 21.9462 176.566 21.3222L175.136 24.4682H173.797L172.367 21.3352ZM184.753 15.3032C184.77 15.4245 184.783 15.5502 184.792 15.6802C184.801 15.8102 184.805 15.9055 184.805 15.9662C184.805 16.5468 184.701 17.1015 184.493 17.6302C184.285 18.1502 184.029 18.5922 183.726 18.9562L182.413 18.6572C182.578 18.2845 182.708 17.8642 182.803 17.3962C182.907 16.9195 182.959 16.4688 182.959 16.0442C182.959 16.0268 182.959 15.9922 182.959 15.9402C182.959 15.8795 182.955 15.8145 182.946 15.7452C182.946 15.6672 182.942 15.5892 182.933 15.5112C182.933 15.4332 182.929 15.3638 182.92 15.3032H184.753ZM181.958 15.3032C181.975 15.4245 181.988 15.5502 181.997 15.6802C182.006 15.8102 182.01 15.9055 182.01 15.9662C182.01 16.5468 181.906 17.1015 181.698 17.6302C181.49 18.1502 181.234 18.5922 180.931 18.9562L179.618 18.6572C179.783 18.2845 179.913 17.8642 180.008 17.3962C180.112 16.9195 180.164 16.4688 180.164 16.0442C180.164 16.0268 180.164 15.9922 180.164 15.9402C180.164 15.8795 180.16 15.8145 180.151 15.7452C180.151 15.6672 180.147 15.5892 180.138 15.5112C180.138 15.4332 180.134 15.3638 180.125 15.3032H181.958ZM3.72 34.8582C3.48 34.5782 3.212 34.2702 2.916 33.9342C2.628 33.5902 2.336 33.2462 2.04 32.9022C1.752 32.5502 1.468 32.2062 1.188 31.8702C0.916 31.5342 0.672 31.2302 0.456 30.9582H1.812C1.988 31.1822 2.196 31.4462 2.436 31.7502C2.684 32.0542 2.944 32.3742 3.216 32.7102C3.496 33.0382 3.776 33.3742 4.056 33.7182C4.344 34.0542 4.616 34.3702 4.872 34.6662V30.9582H5.988V34.6662C6.236 34.3702 6.5 34.0542 6.78 33.7182C7.068 33.3742 7.348 33.0342 7.62 32.6982C7.9 32.3622 8.164 32.0462 8.412 31.7502C8.66 31.4462 8.872 31.1822 9.048 30.9582H10.392C10.176 31.2302 9.928 31.5342 9.648 31.8702C9.376 32.2062 9.092 32.5502 8.796 32.9022C8.508 33.2462 8.22 33.5862 7.932 33.9222C7.644 34.2582 7.38 34.5662 7.14 34.8462C7.46 35.1342 7.78 35.4582 8.1 35.8182C8.42 36.1702 8.728 36.5382 9.024 36.9222C9.328 37.3062 9.612 37.6982 9.876 38.0982C10.14 38.4982 10.376 38.8902 10.584 39.2742H9.264C9.048 38.9062 8.804 38.5382 8.532 38.1702C8.26 37.7942 7.98 37.4342 7.692 37.0902C7.404 36.7382 7.112 36.4102 6.816 36.1062C6.528 35.8022 6.252 35.5342 5.988 35.3022V39.2742H4.872V35.3022C4.608 35.5342 4.328 35.8022 4.032 36.1062C3.736 36.4102 3.444 36.7382 3.156 37.0902C2.868 37.4342 2.588 37.7942 2.316 38.1702C2.052 38.5382 1.812 38.9062 1.596 39.2742H0.288C0.488 38.8902 0.72 38.4982 0.984 38.0982C1.248 37.6982 1.528 37.3062 1.824 36.9222C2.128 36.5382 2.44 36.1702 2.76 35.8182C3.088 35.4662 3.408 35.1462 3.72 34.8582ZM11.0913 40.4382C11.1793 40.4782 11.2913 40.5142 11.4273 40.5462C11.5713 40.5862 11.7113 40.6062 11.8473 40.6062C12.2873 40.6062 12.6313 40.5062 12.8793 40.3062C13.1273 40.1142 13.3513 39.7982 13.5513 39.3582C13.0473 38.3982 12.5753 37.3822 12.1353 36.3102C11.7033 35.2302 11.3433 34.1382 11.0553 33.0342H12.2553C12.3433 33.3942 12.4473 33.7822 12.5673 34.1982C12.6953 34.6142 12.8353 35.0422 12.9873 35.4822C13.1393 35.9222 13.3033 36.3622 13.4793 36.8022C13.6553 37.2422 13.8393 37.6662 14.0313 38.0742C14.3353 37.2342 14.5993 36.4022 14.8233 35.5782C15.0473 34.7542 15.2593 33.9062 15.4593 33.0342H16.6113C16.3233 34.2102 16.0033 35.3422 15.6513 36.4302C15.2993 37.5102 14.9193 38.5222 14.5113 39.4662C14.3513 39.8262 14.1833 40.1342 14.0073 40.3902C13.8393 40.6542 13.6513 40.8702 13.4433 41.0382C13.2353 41.2062 12.9993 41.3302 12.7353 41.4102C12.4793 41.4902 12.1873 41.5302 11.8593 41.5302C11.7713 41.5302 11.6793 41.5222 11.5833 41.5062C11.4873 41.4982 11.3913 41.4822 11.2953 41.4582C11.2073 41.4422 11.1233 41.4222 11.0433 41.3982C10.9713 41.3742 10.9193 41.3542 10.8873 41.3382L11.0913 40.4382ZM22.1201 36.1662C22.1201 35.4382 21.9401 34.8782 21.5801 34.4862C21.2201 34.0942 20.7401 33.8982 20.1401 33.8982C19.8041 33.8982 19.5401 33.9102 19.3481 33.9342C19.1641 33.9582 19.0161 33.9862 18.9041 34.0182V37.9542C19.0401 38.0662 19.2361 38.1742 19.4921 38.2782C19.7481 38.3822 20.0281 38.4342 20.3321 38.4342C20.6521 38.4342 20.9241 38.3782 21.1481 38.2662C21.3801 38.1462 21.5681 37.9862 21.7121 37.7862C21.8561 37.5782 21.9601 37.3382 22.0241 37.0662C22.0881 36.7862 22.1201 36.4862 22.1201 36.1662ZM23.2841 36.1662C23.2841 36.6382 23.2201 37.0742 23.0921 37.4742C22.9721 37.8742 22.7921 38.2182 22.5521 38.5062C22.3121 38.7942 22.0161 39.0182 21.6641 39.1782C21.3201 39.3382 20.9241 39.4182 20.4761 39.4182C20.1161 39.4182 19.7961 39.3702 19.5161 39.2742C19.2441 39.1782 19.0401 39.0862 18.9041 38.9982V41.4942H17.7881V33.2262C18.0521 33.1622 18.3801 33.0942 18.7721 33.0222C19.1721 32.9422 19.6321 32.9022 20.1521 32.9022C20.6321 32.9022 21.0641 32.9782 21.4481 33.1302C21.8321 33.2822 22.1601 33.4982 22.4321 33.7782C22.7041 34.0582 22.9121 34.4022 23.0561 34.8102C23.2081 35.2102 23.2841 35.6622 23.2841 36.1662ZM29.9665 39.2742H28.8505V36.5142H25.9705V39.2742H24.8545V33.0342H25.9705V35.5782H28.8505V33.0342H29.9665V39.2742ZM33.9978 38.4702C34.2618 38.4702 34.4938 38.4662 34.6938 38.4582C34.9018 38.4422 35.0738 38.4182 35.2098 38.3862V36.5262C35.1298 36.4862 34.9978 36.4542 34.8138 36.4302C34.6378 36.3982 34.4218 36.3822 34.1658 36.3822C33.9978 36.3822 33.8178 36.3942 33.6258 36.4182C33.4418 36.4422 33.2698 36.4942 33.1098 36.5742C32.9578 36.6462 32.8298 36.7502 32.7258 36.8862C32.6218 37.0142 32.5698 37.1862 32.5698 37.4022C32.5698 37.8022 32.6978 38.0822 32.9538 38.2422C33.2098 38.3942 33.5578 38.4702 33.9978 38.4702ZM33.9018 32.8782C34.3498 32.8782 34.7258 32.9382 35.0298 33.0582C35.3418 33.1702 35.5898 33.3342 35.7738 33.5502C35.9658 33.7582 36.1018 34.0102 36.1818 34.3062C36.2618 34.5942 36.3018 34.9142 36.3018 35.2662V39.1662C36.2058 39.1822 36.0698 39.2062 35.8938 39.2382C35.7258 39.2622 35.5338 39.2862 35.3178 39.3102C35.1018 39.3342 34.8658 39.3542 34.6098 39.3702C34.3618 39.3942 34.1138 39.4062 33.8658 39.4062C33.5138 39.4062 33.1898 39.3702 32.8938 39.2982C32.5978 39.2262 32.3418 39.1142 32.1258 38.9622C31.9098 38.8022 31.7418 38.5942 31.6218 38.3382C31.5018 38.0822 31.4418 37.7742 31.4418 37.4142C31.4418 37.0702 31.5098 36.7742 31.6458 36.5262C31.7898 36.2782 31.9818 36.0782 32.2218 35.9262C32.4618 35.7742 32.7418 35.6622 33.0618 35.5902C33.3818 35.5182 33.7178 35.4822 34.0698 35.4822C34.1818 35.4822 34.2978 35.4902 34.4178 35.5062C34.5378 35.5142 34.6498 35.5302 34.7538 35.5542C34.8658 35.5702 34.9618 35.5862 35.0418 35.6022C35.1218 35.6182 35.1778 35.6302 35.2098 35.6382V35.3262C35.2098 35.1422 35.1898 34.9622 35.1498 34.7862C35.1098 34.6022 35.0378 34.4422 34.9338 34.3062C34.8298 34.1622 34.6858 34.0502 34.5018 33.9702C34.3258 33.8822 34.0938 33.8382 33.8058 33.8382C33.4378 33.8382 33.1138 33.8662 32.8338 33.9222C32.5618 33.9702 32.3578 34.0222 32.2218 34.0782L32.0898 33.1542C32.2338 33.0902 32.4738 33.0302 32.8098 32.9742C33.1458 32.9102 33.5098 32.8782 33.9018 32.8782ZM40.3273 33.9702C40.3273 34.2342 40.3193 34.5182 40.3033 34.8222C40.2953 35.1182 40.2753 35.4182 40.2433 35.7222C40.2113 36.0182 40.1673 36.3142 40.1113 36.6102C40.0553 36.8982 39.9833 37.1702 39.8953 37.4262C39.8073 37.6822 39.6953 37.9222 39.5593 38.1462C39.4313 38.3702 39.2713 38.5702 39.0793 38.7462C38.8873 38.9142 38.6633 39.0582 38.4073 39.1782C38.1513 39.2902 37.8513 39.3622 37.5073 39.3942L37.3513 38.4582C37.7433 38.3782 38.0513 38.2302 38.2753 38.0142C38.5073 37.7982 38.6913 37.5342 38.8273 37.2222C38.9473 36.9502 39.0353 36.6422 39.0913 36.2982C39.1473 35.9542 39.1873 35.5982 39.2113 35.2302C39.2353 34.8542 39.2473 34.4782 39.2473 34.1022C39.2553 33.7262 39.2593 33.3702 39.2593 33.0342H43.4113V39.2742H42.2953V33.9702H40.3273ZM53.1205 39.2742H52.0045V33.9702H49.2205V39.2742H48.1045V33.0342H53.1205V39.2742ZM60.55 36.1542C60.55 36.6502 60.478 37.0982 60.334 37.4982C60.19 37.8982 59.986 38.2422 59.722 38.5302C59.466 38.8182 59.158 39.0422 58.798 39.2022C58.438 39.3542 58.046 39.4302 57.622 39.4302C57.198 39.4302 56.806 39.3542 56.446 39.2022C56.086 39.0422 55.774 38.8182 55.51 38.5302C55.254 38.2422 55.054 37.8982 54.91 37.4982C54.766 37.0982 54.694 36.6502 54.694 36.1542C54.694 35.6662 54.766 35.2222 54.91 34.8222C55.054 34.4142 55.254 34.0662 55.51 33.7782C55.774 33.4902 56.086 33.2702 56.446 33.1182C56.806 32.9582 57.198 32.8782 57.622 32.8782C58.046 32.8782 58.438 32.9582 58.798 33.1182C59.158 33.2702 59.466 33.4902 59.722 33.7782C59.986 34.0662 60.19 34.4142 60.334 34.8222C60.478 35.2222 60.55 35.6662 60.55 36.1542ZM59.386 36.1542C59.386 35.4502 59.226 34.8942 58.906 34.4862C58.594 34.0702 58.166 33.8622 57.622 33.8622C57.078 33.8622 56.646 34.0702 56.326 34.4862C56.014 34.8942 55.858 35.4502 55.858 36.1542C55.858 36.8582 56.014 37.4182 56.326 37.8342C56.646 38.2422 57.078 38.4462 57.622 38.4462C58.166 38.4462 58.594 38.2422 58.906 37.8342C59.226 37.4182 59.386 36.8582 59.386 36.1542ZM64.8322 39.4182C64.3282 39.4182 63.8842 39.3382 63.5002 39.1782C63.1242 39.0182 62.8042 38.7942 62.5402 38.5062C62.2842 38.2182 62.0922 37.8782 61.9642 37.4862C61.8362 37.0862 61.7722 36.6462 61.7722 36.1662C61.7722 35.6862 61.8402 35.2462 61.9762 34.8462C62.1202 34.4462 62.3202 34.1022 62.5762 33.8142C62.8322 33.5182 63.1442 33.2902 63.5122 33.1302C63.8882 32.9622 64.3042 32.8782 64.7602 32.8782C65.0402 32.8782 65.3202 32.9022 65.6002 32.9502C65.8802 32.9982 66.1482 33.0742 66.4042 33.1782L66.1522 34.1262C65.9842 34.0462 65.7882 33.9822 65.5642 33.9342C65.3482 33.8862 65.1162 33.8622 64.8682 33.8622C64.2442 33.8622 63.7642 34.0582 63.4282 34.4502C63.1002 34.8422 62.9362 35.4142 62.9362 36.1662C62.9362 36.5022 62.9722 36.8102 63.0442 37.0902C63.1242 37.3702 63.2442 37.6102 63.4042 37.8102C63.5722 38.0102 63.7842 38.1662 64.0402 38.2782C64.2962 38.3822 64.6082 38.4342 64.9762 38.4342C65.2722 38.4342 65.5402 38.4062 65.7802 38.3502C66.0202 38.2942 66.2082 38.2342 66.3442 38.1702L66.5002 39.1062C66.4362 39.1462 66.3442 39.1862 66.2242 39.2262C66.1042 39.2582 65.9682 39.2862 65.8162 39.3102C65.6642 39.3422 65.5002 39.3662 65.3242 39.3822C65.1562 39.4062 64.9922 39.4182 64.8322 39.4182ZM67.3503 36.1662C67.3503 35.6142 67.4303 35.1342 67.5903 34.7262C67.7503 34.3102 67.9623 33.9662 68.2263 33.6942C68.4903 33.4222 68.7943 33.2182 69.1383 33.0822C69.4823 32.9462 69.8343 32.8782 70.1943 32.8782C71.0343 32.8782 71.6783 33.1422 72.1263 33.6702C72.5743 34.1902 72.7983 34.9862 72.7983 36.0582C72.7983 36.1062 72.7983 36.1702 72.7983 36.2502C72.7983 36.3222 72.7943 36.3902 72.7863 36.4542H68.5143C68.5623 37.1022 68.7503 37.5942 69.0783 37.9302C69.4063 38.2662 69.9183 38.4342 70.6143 38.4342C71.0063 38.4342 71.3343 38.4022 71.5983 38.3382C71.8703 38.2662 72.0743 38.1982 72.2103 38.1342L72.3663 39.0702C72.2303 39.1422 71.9903 39.2182 71.6463 39.2982C71.3103 39.3782 70.9263 39.4182 70.4943 39.4182C69.9503 39.4182 69.4783 39.3382 69.0783 39.1782C68.6863 39.0102 68.3623 38.7822 68.1063 38.4942C67.8503 38.2062 67.6583 37.8662 67.5303 37.4742C67.4103 37.0742 67.3503 36.6382 67.3503 36.1662ZM71.6343 35.5542C71.6423 35.0502 71.5143 34.6382 71.2503 34.3182C70.9943 33.9902 70.6383 33.8262 70.1823 33.8262C69.9263 33.8262 69.6983 33.8782 69.4983 33.9822C69.3063 34.0782 69.1423 34.2062 69.0063 34.3662C68.8703 34.5262 68.7623 34.7102 68.6823 34.9182C68.6103 35.1262 68.5623 35.3382 68.5383 35.5542H71.6343ZM74.4014 39.2742V33.0342H75.5174V38.3502H77.8214V33.0342H78.9374V38.3502H81.2414V33.0342H82.3574V38.3502H83.1974V41.0142H82.1414V39.2742H74.4014ZM86.5212 38.4702C86.7852 38.4702 87.0172 38.4662 87.2172 38.4582C87.4252 38.4422 87.5972 38.4182 87.7332 38.3862V36.5262C87.6532 36.4862 87.5212 36.4542 87.3372 36.4302C87.1612 36.3982 86.9452 36.3822 86.6892 36.3822C86.5212 36.3822 86.3412 36.3942 86.1492 36.4182C85.9652 36.4422 85.7932 36.4942 85.6332 36.5742C85.4812 36.6462 85.3532 36.7502 85.2492 36.8862C85.1452 37.0142 85.0932 37.1862 85.0932 37.4022C85.0932 37.8022 85.2212 38.0822 85.4772 38.2422C85.7332 38.3942 86.0812 38.4702 86.5212 38.4702ZM86.4252 32.8782C86.8732 32.8782 87.2492 32.9382 87.5532 33.0582C87.8652 33.1702 88.1132 33.3342 88.2972 33.5502C88.4892 33.7582 88.6252 34.0102 88.7052 34.3062C88.7852 34.5942 88.8252 34.9142 88.8252 35.2662V39.1662C88.7292 39.1822 88.5932 39.2062 88.4172 39.2382C88.2492 39.2622 88.0572 39.2862 87.8412 39.3102C87.6252 39.3342 87.3892 39.3542 87.1332 39.3702C86.8852 39.3942 86.6372 39.4062 86.3892 39.4062C86.0372 39.4062 85.7132 39.3702 85.4172 39.2982C85.1212 39.2262 84.8652 39.1142 84.6492 38.9622C84.4332 38.8022 84.2652 38.5942 84.1452 38.3382C84.0252 38.0822 83.9652 37.7742 83.9652 37.4142C83.9652 37.0702 84.0332 36.7742 84.1692 36.5262C84.3132 36.2782 84.5052 36.0782 84.7452 35.9262C84.9852 35.7742 85.2652 35.6622 85.5852 35.5902C85.9052 35.5182 86.2412 35.4822 86.5932 35.4822C86.7052 35.4822 86.8212 35.4902 86.9412 35.5062C87.0612 35.5142 87.1732 35.5302 87.2772 35.5542C87.3892 35.5702 87.4852 35.5862 87.5652 35.6022C87.6452 35.6182 87.7012 35.6302 87.7332 35.6382V35.3262C87.7332 35.1422 87.7132 34.9622 87.6732 34.7862C87.6332 34.6022 87.5612 34.4422 87.4572 34.3062C87.3532 34.1622 87.2092 34.0502 87.0252 33.9702C86.8492 33.8822 86.6172 33.8382 86.3292 33.8382C85.9612 33.8382 85.6372 33.8662 85.3572 33.9222C85.0852 33.9702 84.8812 34.0222 84.7452 34.0782L84.6132 33.1542C84.7572 33.0902 84.9972 33.0302 85.3332 32.9742C85.6692 32.9102 86.0332 32.8782 86.4252 32.8782ZM90.3308 36.1662C90.3308 35.6142 90.4108 35.1342 90.5708 34.7262C90.7308 34.3102 90.9428 33.9662 91.2068 33.6942C91.4708 33.4222 91.7748 33.2182 92.1188 33.0822C92.4628 32.9462 92.8148 32.8782 93.1748 32.8782C94.0148 32.8782 94.6588 33.1422 95.1068 33.6702C95.5548 34.1902 95.7787 34.9862 95.7787 36.0582C95.7787 36.1062 95.7787 36.1702 95.7787 36.2502C95.7787 36.3222 95.7747 36.3902 95.7668 36.4542H91.4948C91.5428 37.1022 91.7308 37.5942 92.0588 37.9302C92.3868 38.2662 92.8988 38.4342 93.5948 38.4342C93.9868 38.4342 94.3148 38.4022 94.5788 38.3382C94.8508 38.2662 95.0548 38.1982 95.1908 38.1342L95.3468 39.0702C95.2108 39.1422 94.9708 39.2182 94.6268 39.2982C94.2908 39.3782 93.9068 39.4182 93.4748 39.4182C92.9308 39.4182 92.4588 39.3382 92.0588 39.1782C91.6668 39.0102 91.3428 38.7822 91.0868 38.4942C90.8308 38.2062 90.6388 37.8662 90.5107 37.4742C90.3908 37.0742 90.3308 36.6382 90.3308 36.1662ZM94.6148 35.5542C94.6228 35.0502 94.4948 34.6382 94.2308 34.3182C93.9748 33.9902 93.6188 33.8262 93.1628 33.8262C92.9068 33.8262 92.6788 33.8782 92.4788 33.9822C92.2868 34.0782 92.1228 34.2062 91.9868 34.3662C91.8508 34.5262 91.7428 34.7102 91.6628 34.9182C91.5908 35.1262 91.5428 35.3382 91.5188 35.5542H94.6148ZM98.5699 34.6782C98.4899 35.4702 98.4299 36.2622 98.3899 37.0542C98.3499 37.8382 98.3179 38.5782 98.2939 39.2742H97.2259C97.2419 38.7862 97.2659 38.2782 97.2979 37.7502C97.3299 37.2142 97.3659 36.6782 97.4059 36.1422C97.4459 35.5982 97.4899 35.0662 97.5379 34.5462C97.5859 34.0182 97.6379 33.5142 97.6939 33.0342H98.7139C98.9699 33.4502 99.2699 34.0222 99.6139 34.7502C99.9579 35.4702 100.354 36.3022 100.802 37.2462C101.25 36.3022 101.646 35.4702 101.99 34.7502C102.334 34.0222 102.634 33.4502 102.89 33.0342H103.922C103.978 33.5142 104.03 34.0182 104.078 34.5462C104.126 35.0662 104.17 35.5982 104.21 36.1422C104.25 36.6782 104.286 37.2142 104.318 37.7502C104.35 38.2782 104.374 38.7862 104.39 39.2742H103.286C103.262 38.5782 103.23 37.8382 103.19 37.0542C103.15 36.2622 103.09 35.4702 103.01 34.6782C102.882 34.9262 102.734 35.2262 102.566 35.5782C102.398 35.9222 102.23 36.2742 102.062 36.6342C101.902 36.9942 101.75 37.3382 101.606 37.6662C101.462 37.9942 101.35 38.2542 101.27 38.4462H100.334C100.246 38.2462 100.126 37.9822 99.9739 37.6542C99.8299 37.3262 99.6739 36.9822 99.5059 36.6222C99.3459 36.2542 99.1819 35.8982 99.0139 35.5542C98.8459 35.2022 98.6979 34.9102 98.5699 34.6782ZM111.667 36.1542C111.667 36.6502 111.595 37.0982 111.451 37.4982C111.307 37.8982 111.103 38.2422 110.839 38.5302C110.583 38.8182 110.275 39.0422 109.915 39.2022C109.555 39.3542 109.163 39.4302 108.739 39.4302C108.315 39.4302 107.923 39.3542 107.563 39.2022C107.203 39.0422 106.891 38.8182 106.627 38.5302C106.371 38.2422 106.171 37.8982 106.027 37.4982C105.883 37.0982 105.811 36.6502 105.811 36.1542C105.811 35.6662 105.883 35.2222 106.027 34.8222C106.171 34.4142 106.371 34.0662 106.627 33.7782C106.891 33.4902 107.203 33.2702 107.563 33.1182C107.923 32.9582 108.315 32.8782 108.739 32.8782C109.163 32.8782 109.555 32.9582 109.915 33.1182C110.275 33.2702 110.583 33.4902 110.839 33.7782C111.103 34.0662 111.307 34.4142 111.451 34.8222C111.595 35.2222 111.667 35.6662 111.667 36.1542ZM110.503 36.1542C110.503 35.4502 110.343 34.8942 110.023 34.4862C109.711 34.0702 109.283 33.8622 108.739 33.8622C108.195 33.8622 107.763 34.0702 107.443 34.4862C107.131 34.8942 106.975 35.4502 106.975 36.1542C106.975 36.8582 107.131 37.4182 107.443 37.8342C107.763 38.2422 108.195 38.4462 108.739 38.4462C109.283 38.4462 109.711 38.2422 110.023 37.8342C110.343 37.4182 110.503 36.8582 110.503 36.1542ZM115.949 39.4182C115.445 39.4182 115.001 39.3382 114.617 39.1782C114.241 39.0182 113.921 38.7942 113.657 38.5062C113.401 38.2182 113.209 37.8782 113.081 37.4862C112.953 37.0862 112.889 36.6462 112.889 36.1662C112.889 35.6862 112.957 35.2462 113.093 34.8462C113.237 34.4462 113.437 34.1022 113.693 33.8142C113.949 33.5182 114.261 33.2902 114.629 33.1302C115.005 32.9622 115.421 32.8782 115.877 32.8782C116.157 32.8782 116.437 32.9022 116.717 32.9502C116.997 32.9982 117.265 33.0742 117.521 33.1782L117.269 34.1262C117.101 34.0462 116.905 33.9822 116.681 33.9342C116.465 33.8862 116.233 33.8622 115.985 33.8622C115.361 33.8622 114.881 34.0582 114.545 34.4502C114.217 34.8422 114.053 35.4142 114.053 36.1662C114.053 36.5022 114.089 36.8102 114.161 37.0902C114.241 37.3702 114.361 37.6102 114.521 37.8102C114.689 38.0102 114.901 38.1662 115.157 38.2782C115.413 38.3822 115.725 38.4342 116.093 38.4342C116.389 38.4342 116.657 38.4062 116.897 38.3502C117.137 38.2942 117.325 38.2342 117.461 38.1702L117.617 39.1062C117.553 39.1462 117.461 39.1862 117.341 39.2262C117.221 39.2582 117.085 39.2862 116.933 39.3102C116.781 39.3422 116.617 39.3662 116.441 39.3822C116.273 39.4062 116.109 39.4182 115.949 39.4182ZM123.395 33.0342V33.9702H121.367V39.2742H120.251V33.9702H118.223V33.0342H123.395ZM129.79 33.0342V39.2742H128.71V34.5222C128.47 34.8262 128.206 35.1822 127.918 35.5902C127.63 35.9982 127.342 36.4222 127.054 36.8622C126.766 37.2942 126.49 37.7222 126.226 38.1462C125.962 38.5702 125.734 38.9462 125.542 39.2742H124.546V33.0342H125.626V37.5222C125.834 37.1782 126.07 36.8022 126.334 36.3942C126.598 35.9782 126.87 35.5702 127.15 35.1702C127.438 34.7622 127.722 34.3742 128.002 34.0062C128.29 33.6302 128.558 33.3062 128.806 33.0342H129.79Z" fill="white"/>
</svg>
